<svg height='300px' width='300px'  fill="#000000" xmlns="http://www.w3.org/2000/svg" xmlns:xlink="http://www.w3.org/1999/xlink" version="1.1" x="0px" y="0px" viewBox="0 0 100 100" enable-background="new 0 0 100 100" xml:space="preserve"><g><path fill="#000000" d="M82.7,50.6L63.6,31.3c-0.3-0.3-0.9-0.3-1.2,0c-0.3,0.3-0.3,0.9,0,1.2l18.6,18.7L62.3,70   c-0.3,0.3-0.3,0.9,0,1.2c0.2,0.2,0.4,0.3,0.6,0.3c0.2,0,0.5-0.1,0.6-0.3l19.2-19.3C83.1,51.5,83.1,51,82.7,50.6z"></path><path fill="#000000" d="M38.9,31.3c-0.3-0.3-0.9-0.3-1.2,0L18.5,50.6c-0.3,0.3-0.3,0.9,0,1.2l19.2,19.3c0.2,0.2,0.4,0.3,0.6,0.3   c0.2,0,0.4-0.1,0.6-0.3c0.3-0.3,0.3-0.9,0-1.2L20.4,51.2l18.6-18.7C39.3,32.2,39.3,31.6,38.9,31.3z"></path><path fill="#000000" d="M59.8,21.9c-0.5-0.1-1,0.1-1.1,0.6L40.8,79.5c-0.1,0.5,0.1,1,0.6,1.1c0.1,0,0.2,0,0.3,0   c0.4,0,0.7-0.2,0.8-0.6L60.4,23C60.5,22.5,60.3,22,59.8,21.9z"></path></g></svg>