<svg height='300px' width='300px'  fill="#000000" xmlns="http://www.w3.org/2000/svg" xmlns:xlink="http://www.w3.org/1999/xlink" version="1.1" x="0px" y="0px" viewBox="0 0 100 100" enable-background="new 0 0 100 100" xml:space="preserve"><g><g><path d="M70.112,18.125l-1.167-0.544l1.86-3.997c0.291-0.618,0.025-1.353-0.593-1.643l-5.264-2.453    c-0.297-0.136-0.636-0.154-0.945-0.043c-0.309,0.117-0.562,0.346-0.698,0.643l-1.86,3.997l-1.168-0.544    c-0.618-0.291-1.353-0.025-1.643,0.593l-5.752,12.332L31.374,72.587c-0.006,0.019-0.012,0.043-0.025,0.062    c-0.012,0.037-0.025,0.074-0.037,0.111c-0.018,0.068-0.031,0.142-0.043,0.216c0,0.006-0.006,0.012,0,0.025l-1.606,16.267    c-0.056,0.525,0.228,1.02,0.704,1.242c0.167,0.08,0.346,0.118,0.525,0.118c0.321,0,0.643-0.13,0.884-0.371l11.356-11.615    c0.025-0.025,0.056-0.049,0.081-0.08c0.056-0.056,0.105-0.124,0.154-0.185c0.031-0.049,0.062-0.105,0.086-0.161l0.025-0.056    l21.476-46.053l5.752-12.338c0.142-0.297,0.154-0.636,0.043-0.945C70.637,18.515,70.408,18.261,70.112,18.125z M65.021,12.25    l3.021,1.409l-0.889,1.915l-3.021-1.409L65.021,12.25z M32.468,86.012l1.087-11.047l6.673,3.114L32.468,86.012z M62.71,31.063    L41.735,76.047l-7.593-3.534L55.123,27.51l5.227-11.207l7.593,3.54L62.71,31.063z"></path></g></g><g><g><path fill="#000000" d="M24.401,61.299c-0.25,0-0.503-0.076-0.721-0.233L5.513,47.978C5.191,47.746,5,47.372,5,46.975    c0-0.397,0.191-0.77,0.513-1.002L23.68,32.885c0.554-0.399,1.326-0.273,1.725,0.28c0.399,0.554,0.273,1.326-0.281,1.725    L8.35,46.975L25.125,59.06c0.554,0.399,0.679,1.171,0.281,1.725C25.163,61.12,24.785,61.299,24.401,61.299z"></path></g></g><g><g><path fill="#000000" d="M75.598,61.299c-0.384,0-0.762-0.178-1.004-0.513c-0.399-0.554-0.273-1.326,0.281-1.725L91.65,46.975    L74.875,34.89c-0.554-0.399-0.679-1.171-0.281-1.725c0.399-0.554,1.17-0.68,1.725-0.28l18.167,13.088    C94.809,46.205,95,46.578,95,46.975c0,0.397-0.191,0.77-0.513,1.002L76.319,61.065C76.101,61.223,75.848,61.299,75.598,61.299z"></path></g></g></svg>